<?xml version="1.0" standalone="no"?>
<!DOCTYPE svg PUBLIC "-//W3C//DTD SVG 20010904//EN"
 "http://www.w3.org/TR/2001/REC-SVG-20010904/DTD/svg10.dtd">
<svg version="1.0" xmlns="http://www.w3.org/2000/svg"
 width="450.000000pt" height="450.000000pt" viewBox="0 0 450.000000 450.000000"
 preserveAspectRatio="xMidYMid meet">
<metadata>
Created by potrace 1.11, written by Peter Selinger 2001-2013
</metadata>
<g transform="translate(0.000000,450.000000) scale(0.100000,-0.100000)"
fill="#000000" stroke="none">
<path d="M2312 4439 c-49 -28 -77 -38 -84 -31 -11 11 -68 -6 -68 -21 0 -4 -5
-5 -11 -1 -6 3 -8 18 -5 33 l6 26 -17 -23 c-10 -13 -28 -35 -41 -50 l-22 -27
10 28 c12 34 12 37 2 37 -4 0 -14 -16 -21 -35 -7 -19 -19 -35 -27 -35 -7 0
-32 -16 -53 -35 -22 -20 -45 -34 -52 -33 -10 2 -13 -6 -12 -27 2 -16 0 -24 -3
-17 -3 6 -11 9 -16 6 -6 -4 -8 -2 -4 4 3 6 2 13 -4 17 -6 4 -10 -4 -10 -19 0
-16 -7 -27 -21 -31 -17 -6 -19 -9 -8 -16 10 -7 6 -8 -11 -4 -20 5 -32 -1 -53
-24 -15 -17 -24 -31 -20 -31 5 -1 -3 -7 -17 -15 -14 -8 -21 -14 -16 -15 19 0
-49 -61 -92 -81 -27 -14 -53 -37 -69 -63 -14 -22 -29 -43 -34 -46 -4 -3 -13
-27 -19 -53 -7 -28 -18 -47 -26 -47 -16 0 -19 16 -5 25 5 3 15 22 21 43 7 20
25 58 41 85 16 26 29 49 29 52 0 3 -20 5 -45 5 -55 0 -85 -25 -85 -71 0 -27
-2 -30 -15 -19 -12 10 -16 8 -25 -15 -5 -14 -10 -34 -10 -43 0 -12 -3 -13 -8
-5 -14 23 -35 -3 -29 -35 5 -22 1 -34 -13 -47 -11 -10 -20 -26 -20 -35 0 -9
-11 -30 -25 -46 -28 -33 -32 -27 -10 16 9 17 11 30 5 30 -5 0 -10 5 -10 10 0
6 9 10 20 10 13 0 20 7 20 18 0 10 5 23 12 30 9 9 9 12 -2 12 -8 0 -24 -13
-35 -30 -11 -16 -30 -34 -42 -41 -24 -13 -39 -39 -22 -39 5 0 1 -10 -11 -22
-11 -12 -20 -27 -20 -32 0 -6 -3 -22 -6 -36 -5 -17 -3 -22 4 -15 5 6 12 19 15
30 4 15 5 14 6 -7 0 -15 -10 -44 -24 -64 -14 -20 -25 -34 -25 -30 0 4 -6 1
-14 -6 -20 -20 -53 -149 -66 -254 -13 -116 -27 -176 -56 -246 -20 -48 -23 -67
-17 -120 6 -64 39 -144 69 -168 25 -22 54 -87 54 -122 -1 -30 -2 -31 -14 -15
-7 9 -17 17 -21 17 -5 0 -25 18 -45 40 -20 22 -44 40 -53 40 -19 0 -20 -6 -23
-145 -1 -49 -2 -99 -3 -110 -1 -48 2 -65 10 -59 5 3 9 0 9 -6 0 -6 9 -20 20
-32 l20 -22 0 27 c0 28 32 139 56 196 l15 34 44 -63 c24 -35 42 -66 40 -71 -3
-4 -19 -10 -35 -14 -17 -4 -30 -11 -30 -16 0 -6 -4 -8 -8 -5 -16 10 -45 -93
-39 -141 6 -54 50 -103 92 -103 23 0 25 3 20 23 -10 31 -10 29 -1 55 4 12 12
22 17 22 5 0 9 7 9 16 0 9 9 32 21 50 l21 34 25 -20 c57 -45 70 -20 77 147 5
123 20 189 49 223 9 11 17 25 17 31 0 32 60 128 116 185 45 46 65 75 70 100 4
20 12 38 20 41 7 2 13 17 13 31 -1 33 15 104 27 123 4 8 9 26 9 41 1 26 48 88
68 88 5 0 25 14 44 30 18 17 38 30 43 30 6 0 10 7 10 15 0 8 7 15 15 15 8 0
15 7 15 15 0 8 8 15 18 15 10 0 37 20 61 44 l42 43 82 -2 c45 -1 96 -5 112 -9
17 -4 37 -7 45 -8 56 -5 183 -115 215 -187 9 -20 21 -46 27 -58 11 -23 9 -31
-22 -78 -11 -16 -23 -36 -26 -42 -3 -7 -15 -13 -25 -13 -21 0 -26 -16 -7 -22
9 -3 8 -10 -5 -23 -12 -11 -16 -26 -13 -41 4 -13 1 -24 -6 -26 -9 -3 -7 -10 6
-23 17 -18 17 -19 1 -31 -23 -17 -10 -38 15 -24 23 12 43 13 36 1 -6 -8 11
-19 44 -28 26 -7 65 -3 68 7 2 6 12 10 22 10 10 0 22 5 25 10 4 6 11 7 17 4 6
-4 5 -10 -3 -15 -10 -6 -3 -9 20 -9 19 0 31 -3 28 -7 -4 -3 -3 -11 2 -17 16
-21 20 -58 9 -82 -9 -20 -19 -24 -53 -24 -22 0 -46 -5 -53 -12 -9 -9 -12 -9
-12 2 0 10 -3 10 -17 -2 -18 -15 -53 -14 -53 2 0 4 -9 6 -20 3 -16 -4 -19 -2
-14 11 4 11 0 16 -14 16 -12 0 -23 -4 -26 -8 -3 -5 -27 -9 -55 -9 -27 -1 -58
-6 -70 -12 -27 -15 -121 -14 -121 0 0 17 -82 4 -96 -15 -6 -9 -20 -16 -31 -16
-12 0 -23 -8 -25 -18 -4 -15 -18 -18 -89 -20 -99 -2 -139 -10 -136 -24 2 -12
-101 -47 -121 -40 -7 2 -12 -5 -12 -18 0 -11 -18 -37 -39 -58 -70 -66 -76
-185 -11 -212 16 -7 35 -18 41 -26 6 -8 20 -14 30 -14 9 0 27 -14 39 -30 12
-17 27 -29 33 -27 17 5 34 -15 42 -51 3 -18 11 -30 15 -27 5 3 17 2 27 -3 43
-22 106 -29 206 -21 182 14 279 70 322 184 28 75 50 83 88 28 37 -54 56 -137
58 -258 1 -58 5 -108 10 -111 5 -3 9 -13 9 -22 0 -9 13 -51 30 -92 30 -76 38
-116 20 -105 -5 3 -40 10 -77 14 -64 8 -71 7 -119 -20 -36 -20 -65 -29 -98
-29 -35 0 -49 -5 -58 -20 -15 -23 -41 -26 -57 -6 -9 11 -10 29 -2 72 11 59 30
89 62 99 25 8 24 34 -2 43 -56 21 -234 -5 -265 -39 -9 -10 -24 -19 -32 -19 -8
0 -34 -10 -56 -23 -23 -13 -60 -29 -83 -37 -25 -7 -39 -18 -37 -25 3 -6 -2
-18 -11 -25 -8 -7 -15 -18 -15 -25 0 -6 -9 -20 -20 -30 -11 -10 -20 -24 -20
-31 0 -7 -7 -17 -16 -22 -17 -9 -16 -23 1 -66 7 -15 5 -17 -13 -11 -16 5 -22
2 -22 -10 0 -11 6 -14 25 -9 17 4 25 2 25 -6 0 -7 7 -18 15 -24 10 -7 18 -34
22 -69 6 -56 5 -57 -20 -57 -14 0 -29 5 -32 10 -5 8 -11 8 -20 0 -7 -6 -19 -9
-26 -8 -9 2 -15 -9 -17 -31 -3 -25 -6 -31 -13 -20 -7 11 -9 9 -9 -8 0 -26 -15
-31 -24 -7 -10 27 -25 5 -19 -29 4 -26 0 -38 -20 -58 -14 -13 -31 -25 -36 -25
-6 -1 -13 -2 -15 -3 -7 -1 24 -104 35 -117 15 -18 26 -149 15 -169 -8 -13 -8
-19 2 -22 6 -3 12 -10 12 -17 0 -7 9 -21 20 -31 18 -17 19 -20 4 -36 -14 -16
-13 -19 6 -37 21 -20 21 -21 4 -47 -10 -15 -20 -23 -22 -16 -2 6 -11 11 -19
11 -26 0 -108 67 -139 112 -22 34 -30 59 -35 116 -3 39 -8 74 -10 77 -3 2 -15
2 -27 -2 -29 -7 -23 -32 29 -139 49 -100 114 -174 241 -275 142 -113 623 -405
763 -464 29 -12 54 -15 92 -10 30 4 54 2 57 -4 4 -6 -17 -13 -53 -17 -59 -6
-61 -7 -145 -94 -47 -48 -86 -90 -86 -94 0 -3 140 -6 312 -6 188 0 308 4 302
9 -19 19 -194 121 -233 137 -40 16 -41 16 -78 -14 -21 -16 -72 -46 -113 -67
l-74 -37 60 58 c33 33 95 91 139 129 44 39 84 75 90 80 26 24 157 237 189 305
28 62 79 202 93 258 4 18 23 5 23 -15 0 -20 55 -198 157 -509 60 -184 79 -232
97 -240 11 -5 30 -28 41 -52 l19 -42 572 0 c449 0 573 3 577 13 4 9 6 9 6 0 1
-7 6 -13 12 -13 5 0 8 3 6 7 -3 5 3 16 13 26 15 16 18 16 23 2 4 -9 1 -15 -8
-15 -8 0 -15 -4 -15 -10 0 -5 16 -10 35 -10 33 0 35 2 35 36 0 21 -4 33 -10
29 -5 -3 -10 -1 -10 5 0 6 -4 8 -10 5 -16 -10 -11 12 6 30 19 18 32 105 17
105 -6 0 -16 -7 -23 -15 -7 -8 -27 -15 -44 -15 -17 0 -38 -4 -46 -9 -24 -16
-31 -2 -10 19 21 21 35 27 25 11 -3 -6 7 -6 27 0 34 9 89 59 66 59 -7 0 -24
-12 -37 -25 -23 -25 -41 -32 -41 -17 0 5 3 12 7 16 4 3 8 14 9 24 2 13 -2 12
-17 -7 -21 -25 -24 -17 -10 22 9 22 7 24 -12 19 -12 -2 -34 -18 -49 -34 -44
-46 -33 -16 12 35 23 25 46 44 53 42 16 -6 58 59 62 96 5 36 -7 37 -33 4 -21
-26 -34 -24 -25 3 3 11 2 13 -4 6 -8 -11 -47 -34 -58 -34 -3 0 -3 6 0 13 4 6
-7 -3 -23 -20 -36 -41 -50 -43 -22 -3 12 16 17 30 11 30 -5 0 -24 -20 -41 -44
-16 -25 -36 -48 -43 -52 -8 -5 -7 -2 2 9 18 23 6 34 -16 15 -30 -25 -41 -29
-49 -17 -4 7 -3 9 3 6 6 -4 21 5 33 18 13 14 29 25 37 25 7 0 15 11 19 25 3
14 12 25 19 25 7 0 23 9 37 20 20 15 28 16 38 7 10 -10 12 -8 6 6 -3 10 -6 21
-6 23 0 3 -4 2 -10 -1 -5 -3 -10 -2 -10 3 0 5 16 22 35 37 20 14 34 32 33 38
-1 7 4 23 11 37 l14 25 -26 -24 c-14 -13 -25 -29 -24 -35 1 -6 -4 -10 -11 -8
-8 1 -11 -2 -8 -6 8 -14 -30 -44 -50 -40 -14 2 -11 11 19 50 20 26 32 50 27
53 -15 9 -30 -4 -30 -26 0 -27 -27 -24 -55 7 -19 20 -31 25 -52 21 -14 -3 -35
0 -44 6 -14 9 -22 7 -37 -6 -27 -24 -57 -21 -76 8 -13 19 -25 25 -54 25 -20 0
-45 -7 -56 -15 -12 -9 -24 -11 -35 -6 -31 17 -115 21 -137 6 -22 -14 -89 -6
-259 35 -44 10 -111 21 -150 24 -193 14 -330 27 -335 32 -3 3 46 3 107 0 104
-5 114 -4 123 14 6 11 8 31 4 44 -5 20 -12 25 -35 23 -16 -1 -29 -5 -29 -9 0
-4 -6 -6 -12 -4 -7 3 -26 7 -41 10 -15 4 -25 11 -22 16 3 6 -1 10 -10 10 -11
0 -15 -5 -11 -15 6 -17 1 -18 -29 -5 -19 7 -18 9 8 19 25 10 27 14 21 46 -5
29 -3 35 11 35 17 0 77 -44 74 -55 0 -4 2 -9 5 -13 3 -3 6 2 6 11 0 9 6 17 13
17 26 0 78 32 73 45 -8 21 16 43 49 47 l30 3 3 365 c3 353 3 365 24 387 15 16
19 29 14 47 -3 15 -11 26 -16 26 -6 0 -10 7 -10 16 0 8 -4 13 -9 9 -5 -3 -12
3 -16 14 -3 11 -17 26 -30 35 -30 20 -32 36 -5 36 11 0 20 -6 20 -13 0 -8 12
-20 26 -27 22 -12 27 -12 34 0 8 13 10 12 10 -2 0 -9 8 -21 17 -26 15 -9 15
-14 0 -73 -14 -52 -17 -109 -17 -299 1 -319 14 -557 31 -575 11 -10 34 5 51
35 19 33 42 38 76 14 14 -9 44 -15 81 -15 32 0 101 -11 153 -24 54 -14 94 -20
96 -15 5 14 46 12 60 -2 24 -24 14 -39 -22 -33 -20 4 -36 2 -40 -4 -4 -6 -30
-11 -58 -11 -41 0 -51 -3 -55 -20 -6 -23 -27 -25 -97 -6 -33 9 -52 19 -57 34
-8 21 -42 38 -57 28 -5 -3 -7 -18 -4 -35 3 -23 -1 -32 -19 -42 -13 -6 -27 -17
-31 -23 -5 -7 -8 -3 -8 9 0 11 -9 26 -20 33 -17 10 -23 10 -35 -2 -25 -25 -19
-55 13 -61 15 -3 58 -12 95 -21 37 -9 79 -13 91 -10 13 3 45 -1 72 -9 56 -17
140 -20 149 -5 8 13 105 13 105 1 0 -15 41 -24 53 -12 6 6 23 11 38 11 15 0
40 5 54 10 18 7 33 7 45 0 16 -8 18 -8 14 5 -4 8 -10 15 -15 15 -5 0 -9 8 -9
17 0 13 3 14 12 5 7 -7 30 -12 53 -12 22 0 54 -4 71 -9 21 -6 41 -4 63 5 18 8
37 11 42 8 5 -3 6 1 3 9 -7 19 22 30 46 17 10 -6 26 -10 34 -10 22 0 21 46 -1
55 -17 6 -17 7 0 16 15 9 17 30 17 219 0 157 -3 210 -12 214 -10 5 -10 7 0 12
9 4 12 109 12 475 0 416 -2 469 -15 469 -10 0 -15 7 -13 18 5 26 -40 29 -59 3
-8 -12 -20 -21 -27 -21 -31 0 -160 49 -168 64 -9 16 -45 21 -64 8 -7 -5 -7
-21 -2 -49 9 -41 18 -49 55 -44 7 1 17 -7 23 -18 8 -16 7 -22 -10 -31 -28 -15
-66 -3 -79 26 -6 15 -19 24 -33 25 -157 4 -213 9 -216 18 -6 19 -32 12 -32 -9
0 -11 -12 -27 -26 -37 -25 -16 -27 -16 -39 0 -16 22 -23 22 -21 0 1 -20 -27
-21 -99 -6 -26 6 -46 5 -58 -1 -13 -8 -20 -7 -27 4 -8 13 -12 12 -25 -5 -16
-19 -16 -19 -11 -1 37 115 76 268 76 298 0 35 -1 37 -30 33 -17 -2 -28 0 -25
5 3 5 1 11 -5 15 -6 4 -8 11 -5 16 4 5 -1 9 -9 9 -9 0 -16 3 -16 6 0 9 64 68
72 66 15 -4 22 106 22 363 1 303 5 280 -88 508 -30 74 -63 134 -106 190 -95
126 -162 251 -105 193 9 -9 19 -16 21 -16 9 0 -50 95 -73 118 -12 13 -23 26
-23 31 0 6 -74 51 -85 51 -1 0 0 -12 2 -27 4 -26 3 -26 -10 -10 -8 9 -24 17
-36 17 -12 0 -21 6 -21 15 0 18 21 20 39 3 11 -11 13 -10 9 2 -3 8 -21 19 -40
25 -49 14 -62 29 -18 21 27 -5 31 -4 18 4 -9 5 -29 10 -45 9 -44 -3 -53 0 -53
15 0 8 6 17 13 19 7 3 5 6 -5 6 -10 1 -18 5 -18 10 0 10 32 38 36 31 1 -3 6
-2 10 3 10 10 -28 9 -44 -2 -8 -4 -13 -11 -13 -15 3 -20 -1 -26 -14 -26 -8 0
-15 7 -15 16 0 10 -5 14 -15 10 -8 -3 -21 -9 -29 -12 -21 -8 -29 38 -8 51 13
8 2 11 -48 15 -61 5 -65 6 -65 30 0 15 -6 25 -14 25 -24 0 -22 19 4 38 14 10
25 13 25 7 0 -5 5 -10 10 -10 14 0 12 36 -2 48 -18 14 -138 23 -138 11 0 -6
-4 -7 -10 -4 -5 3 -10 1 -10 -5 0 -7 -6 -10 -12 -7 -7 2 -20 0 -30 -4 -11 -6
-18 -4 -21 5 -4 9 -16 13 -32 12 -14 -2 -28 1 -31 5 -3 5 -19 7 -36 4 l-31 -6
6 41 c6 43 -5 59 -28 40 -8 -7 -15 -9 -15 -4 0 5 -5 1 -11 -8 -11 -19 -59 -25
-59 -8 0 6 9 10 20 10 11 0 20 5 20 10 0 18 -24 10 -98 -31z m447 -115 c2 -2
-3 -6 -12 -10 -9 -3 -26 1 -39 10 -23 16 -22 16 12 10 19 -4 37 -8 39 -10z
m127 -119 c1 -14 -2 -25 -7 -25 -10 0 -12 33 -2 43 3 4 7 7 7 7 1 0 2 -11 2
-25z m368 -227 c38 -47 32 -59 -9 -16 -19 20 -35 39 -35 42 0 15 20 3 44 -26z
m-1604 2 c0 -5 -4 -10 -10 -10 -5 0 -10 5 -10 10 0 6 5 10 10 10 6 0 10 -4 10
-10z m1580 -20 c0 -5 3 -17 7 -27 4 -11 -2 -8 -15 9 -26 31 -28 40 -7 32 8 -4
15 -10 15 -14z m-1600 -10 c0 -5 -5 -10 -11 -10 -5 0 -7 5 -4 10 3 6 8 10 11
10 2 0 4 -4 4 -10z m1670 -52 c0 -19 -2 -20 -10 -8 -13 19 -13 30 0 30 6 0 10
-10 10 -22z m-273 -20 c-3 -8 -6 -5 -6 6 -1 11 2 17 5 13 3 -3 4 -12 1 -19z
m-1408 -25 c-12 -21 -24 -40 -25 -42 -4 -4 -34 25 -34 33 0 3 7 6 16 6 8 0 13
4 9 9 -6 11 22 30 43 31 10 0 7 -11 -9 -37z m-167 -8 c-2 -14 -8 -25 -13 -25
-12 0 -11 7 1 31 14 26 18 24 12 -6z m1245 -861 c-3 -3 -12 -4 -19 -1 -8 3 -5
6 6 6 11 1 17 -2 13 -5z m743 -1005 c0 -4 -9 -9 -20 -12 -14 -4 -20 -14 -20
-33 0 -27 -1 -27 -14 -9 -7 11 -16 29 -20 40 -5 18 -1 20 34 20 22 0 40 -2 40
-6z m31 -86 c-12 -20 -14 -14 -5 12 4 9 9 14 11 11 3 -2 0 -13 -6 -23z m-1336
-129 c27 -7 74 -82 79 -124 3 -26 -2 -38 -22 -57 -22 -20 -24 -26 -14 -48 6
-14 18 -25 27 -25 8 0 15 -7 15 -15 0 -12 -15 -15 -75 -15 -75 0 -75 0 -65 24
5 13 6 27 3 30 -4 3 -1 6 6 6 21 0 3 17 -26 25 -15 3 -32 12 -37 20 -16 21
-79 22 -109 2 -31 -20 -37 -21 -37 -4 0 17 74 94 140 144 54 42 75 48 115 37z
m89 -431 c15 -11 16 -14 4 -10 -9 3 -33 9 -52 13 -20 3 -39 11 -43 17 -9 15
67 -1 91 -20z m-404 -237 c0 -3 -4 -8 -10 -11 -5 -3 -10 -1 -10 4 0 6 5 11 10
11 6 0 10 -2 10 -4z m123 -38 c-13 -6 -23 -17 -23 -25 0 -16 37 -18 42 -2 3 9
17 9 54 -1 45 -11 53 -11 77 5 17 11 33 14 44 10 10 -5 25 -7 34 -6 9 1 19 -6
23 -15 8 -21 -22 -56 -43 -49 -9 2 -38 6 -66 9 -27 2 -57 7 -66 11 -10 3 -23
6 -30 4 -38 -5 -77 3 -99 21 -24 20 -25 21 -6 35 11 8 34 15 50 14 30 0 30 -1
9 -11z m2350 -107 c27 -27 -54 -82 -91 -62 -13 7 -22 7 -30 -1 -9 -9 -12 -9
-12 1 0 10 -3 11 -13 2 -10 -8 -17 -7 -25 1 -13 13 -16 60 -4 72 9 10 164 -2
175 -13z m87 -61 c0 -5 -6 -10 -14 -10 -8 0 -18 5 -21 10 -3 6 3 10 14 10 12
0 21 -4 21 -10z m-180 -80 c-20 -13 -33 -13 -25 0 3 6 14 10 23 10 15 0 15 -2
2 -10z m-50 -15 c0 -2 -9 -9 -20 -15 -12 -6 -20 -7 -20 -1 0 5 8 12 18 14 9 3
18 5 20 6 1 0 2 -1 2 -4z m-130 -59 c0 -2 -7 -7 -16 -10 -8 -3 -12 -2 -9 4 6
10 25 14 25 6z m-940 -87 c11 -6 9 -8 -10 -8 -14 0 -34 7 -45 15 -19 15 -19
15 10 8 17 -4 37 -10 45 -15z m101 -47 c-7 -2 -18 1 -23 6 -8 8 -4 9 13 5 13
-4 18 -8 10 -11z m-29 -30 c-19 -6 -44 6 -37 18 4 7 14 6 28 -2 14 -7 17 -13
9 -16z m1278 -187 c-18 -19 -36 -32 -39 -29 -6 6 54 64 66 64 4 0 -8 -16 -27
-35z m-31 -259 c-18 -20 -37 -36 -43 -36 -5 0 7 18 29 40 47 49 59 45 14 -4z
m-82 28 c-3 -3 -12 -4 -19 -1 -8 3 -5 6 6 6 11 1 17 -2 13 -5z"/>
<path d="M1630 4238 c0 -9 12 -27 28 -40 31 -28 54 -63 45 -72 -3 -3 -12 -1
-19 5 -8 7 -14 7 -19 -1 -3 -5 -1 -10 5 -10 6 0 9 -4 6 -9 -8 -13 42 -1 53 13
8 9 -5 29 -44 72 -34 36 -55 53 -55 42z"/>
<path d="M1600 4066 c0 -2 9 -6 20 -9 11 -3 20 -1 20 4 0 5 -9 9 -20 9 -11 0
-20 -2 -20 -4z"/>
<path d="M0 1635 l0 -1526 68 7 c37 4 91 17 121 30 29 13 57 24 62 24 5 0 32
11 61 24 68 31 111 41 106 25 -2 -7 -15 -14 -29 -16 -44 -6 -89 -24 -84 -34 3
-4 -7 -11 -22 -15 -62 -13 -122 -36 -142 -53 -12 -10 -44 -21 -71 -25 -50 -7
-70 -24 -70 -60 0 -14 62 -16 595 -16 327 0 595 3 595 6 0 3 -15 59 -34 125
-19 65 -38 141 -41 167 l-6 47 33 -59 c31 -56 183 -224 193 -214 2 2 -30 65
-71 138 -130 233 -158 307 -158 425 0 75 3 87 51 191 50 107 68 157 93 256 9
32 29 67 62 105 l50 57 -6 270 c-4 149 -7 309 -8 356 -1 75 -17 150 -32 150
-3 0 -3 -6 0 -14 8 -21 -37 -58 -64 -53 -24 5 -76 -16 -88 -34 -4 -6 -11 -6
-19 1 -23 19 -94 175 -106 231 -37 181 -63 239 -115 258 -35 13 -68 4 -76 -21
-6 -18 -118 -19 -118 -1 0 7 6 13 14 13 8 0 16 6 19 14 4 9 -8 18 -34 26 -22
8 -45 22 -50 32 -9 18 -11 18 -39 2 -28 -17 -29 -17 -61 10 -41 35 -76 50
-111 47 -57 -5 -68 5 -68 65 0 59 16 72 43 34 9 -13 20 -17 36 -13 19 5 22 11
17 36 -3 16 -6 36 -6 44 0 8 -15 20 -32 28 -40 16 -98 80 -98 106 0 15 7 19
33 19 17 0 39 4 47 10 12 8 12 11 -3 28 -23 25 -22 29 11 37 l27 7 -25 10
c-13 5 -32 16 -42 25 -10 8 -36 19 -58 23 l-40 7 25 -45 c41 -73 33 -99 -21
-76 -37 16 -54 12 -54 -12 0 -16 -16 -17 -80 -4 -25 4 -52 4 -60 0 -25 -13
-41 3 -47 48 -7 55 3 89 28 97 31 10 11 23 -41 27 -51 3 -64 26 -35 58 15 17
15 20 0 44 -10 14 -19 26 -21 26 -2 0 -4 -686 -4 -1525z m340 1173 c0 -5 -9
-8 -20 -8 -22 0 -28 26 -7 33 12 4 27 -10 27 -25z m-54 -60 c46 -53 71 -103
70 -142 -1 -50 -21 -63 -73 -50 l-38 9 -1 57 c0 39 -5 63 -17 76 -20 22 -22
43 -5 60 18 18 42 14 64 -10z m-74 -238 c8 -12 24 -20 39 -20 30 0 49 -32 49
-85 l0 -33 -40 15 c-27 11 -42 24 -46 40 -4 14 -17 29 -30 33 -26 10 -32 38
-12 58 17 17 26 15 40 -8z m323 -40 c3 -5 1 -10 -4 -10 -6 0 -11 5 -11 10 0 6
2 10 4 10 3 0 8 -4 11 -10z m-99 -25 c14 -14 33 -25 43 -25 22 0 45 -25 36
-40 -9 -14 -40 -13 -54 3 -6 8 -23 12 -41 9 -38 -5 -60 12 -60 49 0 24 4 29
25 29 14 0 37 -11 51 -25z m232 -27 c-4 -27 -33 -36 -42 -13 -8 22 1 35 25 35
15 0 20 -6 17 -22z m-569 -1120 c22 -24 41 -46 41 -50 0 -13 -77 -9 -87 5 -17
21 -23 60 -11 74 6 7 12 13 13 13 2 0 22 -19 44 -42z m908 -607 c-20 -22 -43
-53 -51 -69 -23 -45 -42 -57 -61 -38 -9 9 -23 16 -31 16 -8 0 -14 7 -14 16 0
12 -6 15 -22 10 -88 -26 -248 -30 -233 -6 10 16 -28 20 -40 4 -8 -11 -19 -14
-33 -10 -31 10 -27 25 8 33 16 3 30 11 30 18 0 16 -46 25 -129 25 -72 0 -96
-14 -103 -61 -2 -15 -13 -27 -30 -33 -40 -14 -72 17 -65 61 6 34 -4 43 -48 43
-13 0 -31 3 -41 7 -16 6 -16 7 -1 12 9 3 215 7 458 9 l442 3 -36 -40z m-533
-47 c9 -3 16 -11 16 -17 0 -6 -3 -7 -6 -4 -4 3 -15 2 -25 -4 -22 -11 -64 6
-54 22 7 10 45 12 69 3z m-99 -34 c-3 -5 -11 -10 -16 -10 -6 0 -7 5 -4 10 3 6
11 10 16 10 6 0 7 -4 4 -10z m265 -298 c0 -13 -149 -66 -159 -57 -4 5 68 35
84 35 7 0 26 7 41 15 34 17 34 17 34 7z"/>
<path d="M190 3017 c0 -14 19 -37 31 -37 4 0 2 11 -4 25 -13 27 -27 33 -27 12z"/>
<path d="M2438 2893 c7 -3 16 -2 19 1 4 3 -2 6 -13 5 -11 0 -14 -3 -6 -6z"/>
<path d="M547 2726 c-7 -19 0 -25 24 -19 11 3 18 11 16 17 -6 17 -34 19 -40 2z"/>
<path d="M1260 2200 c0 -5 5 -10 10 -10 6 0 10 5 10 10 0 6 -4 10 -10 10 -5 0
-10 -4 -10 -10z"/>
<path d="M1765 2190 c-3 -5 3 -10 14 -10 12 0 21 5 21 10 0 6 -6 10 -14 10 -8
0 -18 -4 -21 -10z"/>
<path d="M1247 2153 c-15 -14 -6 -41 15 -46 28 -8 32 -4 24 28 -6 24 -25 33
-39 18z"/>
<path d="M1090 2122 c0 -12 34 -42 47 -42 13 0 22 20 16 38 -5 13 -63 17 -63
4z"/>
<path d="M1536 2085 c4 -8 8 -15 10 -15 2 0 4 7 4 15 0 8 -4 15 -10 15 -5 0
-7 -7 -4 -15z"/>
<path d="M1565 1620 c-3 -5 -1 -10 4 -10 6 0 11 5 11 10 0 6 -2 10 -4 10 -3 0
-8 -4 -11 -10z"/>
<path d="M3266 891 c-14 -5 -16 -10 -8 -15 7 -4 16 -5 21 -2 10 7 23 -66 16
-86 -3 -8 3 -22 14 -33 42 -37 64 22 40 108 -8 31 -14 37 -37 36 -15 0 -36 -4
-46 -8z"/>
<path d="M3120 869 c0 -5 5 -7 10 -4 6 3 10 8 10 11 0 2 -4 4 -10 4 -5 0 -10
-5 -10 -11z"/>
<path d="M4252 711 c-10 -6 -7 -10 13 -15 30 -8 41 -3 30 13 -7 13 -25 14 -43
2z"/>
<path d="M4465 570 c-32 -33 -23 -40 13 -10 13 11 22 24 20 30 -2 6 -16 -3
-33 -20z"/>
<path d="M4414 522 c-15 -10 -25 -42 -14 -42 6 0 10 6 10 14 0 8 6 16 13 19 6
2 10 7 7 10 -3 3 -10 3 -16 -1z"/>
<path d="M4490 339 c0 -5 -4 -8 -8 -5 -5 3 -9 -1 -9 -8 0 -8 6 -12 14 -9 12 5
19 33 8 33 -3 0 -5 -5 -5 -11z"/>
</g>
</svg>
